<?xml version="1.0" encoding="UTF-8" standalone="no"?>
<!-- Created with Inkscape (http://www.inkscape.org/) -->

<svg
   xmlns:dc="http://purl.org/dc/elements/1.1/"
   xmlns:cc="http://creativecommons.org/ns#"
   xmlns:rdf="http://www.w3.org/1999/02/22-rdf-syntax-ns#"
   xmlns:svg="http://www.w3.org/2000/svg"
   xmlns="http://www.w3.org/2000/svg"
   xmlns:sodipodi="http://sodipodi.sourceforge.net/DTD/sodipodi-0.dtd"
   xmlns:inkscape="http://www.inkscape.org/namespaces/inkscape"
   width="134.5723"
   height="30.999996"
   viewBox="0 0 35.605525 8.2020828"
   version="1.1"
   id="svg3906"
   inkscape:version="0.92.4 (5da689c313, 2019-01-14)"
   sodipodi:docname="logotipo.svg">
  <defs
     id="defs3900" />
  <sodipodi:namedview
     id="base"
     pagecolor="#ffffff"
     bordercolor="#666666"
     borderopacity="1.0"
     inkscape:pageopacity="0.0"
     inkscape:pageshadow="2"
     inkscape:zoom="0.7"
     inkscape:cx="537.92626"
     inkscape:cy="402.98021"
     inkscape:document-units="mm"
     inkscape:current-layer="layer1"
     showgrid="false"
     units="px"
     inkscape:window-width="2560"
     inkscape:window-height="1377"
     inkscape:window-x="-8"
     inkscape:window-y="-8"
     inkscape:window-maximized="1" />
  <metadata
     id="metadata3903">
    <rdf:RDF>
      <cc:Work
         rdf:about="">
        <dc:format>image/svg+xml</dc:format>
        <dc:type
           rdf:resource="http://purl.org/dc/dcmitype/StillImage" />
        <dc:title></dc:title>
      </cc:Work>
    </rdf:RDF>
  </metadata>
  <g
     inkscape:label="Camada 1"
     inkscape:groupmode="layer"
     id="layer1"
     transform="translate(-0.2210832,-288.47525)">
    <g
       transform="matrix(0.03409423,0,0,0.03409423,-9.0741032,275.4144)"
       id="g3876">
      <g
         id="g3868">
        <path
           style="fill:#252525"
           inkscape:connector-curvature="0"
           d="m 624.898,416.25 c -12.968,5.897 -38.637,29.796 -37.173,53.983 1.484,24.196 18.004,28.914 18.004,28.914 4.716,0.296 4.716,-2.655 4.716,-2.655 0,0 -8.55,-9.73 -6.202,-33.04 2.367,-23.314 20.37,-35.996 20.37,-35.996 0,0 0,85.564 0,108.277 0,22.714 -3.83,32.451 -6.502,39.232 23.605,-0.294 25.091,-43.364 25.091,-43.364 0,0 0,-85.846 0,-101.193 -10e-4,-15.35 -7.668,-14.158 -18.304,-14.158 z"
           id="path3864" />
        <path
           style="fill:#252525"
           inkscape:connector-curvature="0"
           d="m 1316.94,524.751 c 0,0 0,0 -3.47,-0.327 -0.472,7.595 -6.633,21.187 -11.392,21.031 -4.74,-0.161 -7.253,-2.215 -9.326,-13.599 -2.047,-11.378 -1.568,-30.66 -1.244,-46.78 0.299,-16.129 -4.914,-19.443 -12.669,-20.389 -7.729,-0.952 -10.27,4.741 -12.642,11.063 -2.366,6.329 -13.584,38.88 -13.584,38.88 0,0 -0.798,-16.591 -0.949,-29.875 -0.154,-13.278 -4.74,-20.856 -14.064,-20.856 -9.326,0 -11.542,11.528 -11.865,12.322 -0.303,0.794 -9.887,24.107 -9.887,24.107 0,0 0,-13.864 0,-25.966 0,-12.095 -18.302,-10.323 -18.302,-10.323 v 59.592 c 0,0 -3.535,23.317 -13.569,23.317 -10.034,0 -10.314,-22.427 -10.314,-22.427 0,0 0,-34.225 0,-48.089 0,-13.868 -13.869,-10.034 -15.053,-10.624 -1.182,-0.59 -2.07,3.54 -2.949,5.897 -15.337,-14.154 -31.875,-7.96 -40.121,6.489 -8.271,14.458 -10.34,38.65 -6.506,56.354 -1.462,10.626 -10.897,11.208 -10.897,11.208 -9.451,0 -10.032,-13.864 -10.032,-13.864 -2.95,-22.123 2.947,-44.844 3.532,-54.284 0.603,-9.44 -14.752,-8.851 -20.657,-4.723 -5.902,4.13 -8.244,-0.586 -8.244,-0.586 0,0 -2.973,-13.569 -14.474,-12.688 -11.496,0.886 -10.032,16.82 -7.364,19.473 2.647,2.654 2.953,7.963 0.886,19.174 -2.071,11.209 -18.891,34.226 -18.891,34.226 0,0 0.301,-39.239 0.301,-56.054 0,-16.819 -18.584,-9.739 -18.584,-9.739 0,0 0,0 -0.602,6.193 -20.048,-22.425 -35.407,-1.474 -35.407,-1.474 -20.93,25.078 -12.681,58.42 -12.078,62.257 0.579,3.83 -3.255,13.279 -12.406,13.279 -9.133,0 -8.849,-16.822 -8.849,-16.822 0,0 0,-43.365 0,-55.466 0,-12.095 -17.401,-9.44 -17.401,-9.44 v 7.375 c 0,0 -12.685,-22.416 -33.036,-7.67 -20.372,14.749 -18.003,57.235 -18.31,58.125 -0.275,0.885 -7.661,18.881 -15.91,18.881 -8.269,0 -7.965,-20.061 -7.965,-20.061 V 460.5 c 0,0 5.014,0 18.28,0 13.291,0 10.922,-12.985 10.922,-12.985 h -27.44 v -26.838 c -3.399,-3.4 -10.619,-7.38 -15.053,-7.38 -4.412,0 -7.363,4.129 -7.363,4.129 v 28.917 c 0,0 -10.921,0 -18.003,0 -7.084,0 -5.904,13.567 -5.904,13.567 h 23.907 c 0,0 0,23.009 0,39.239 0,16.227 -8.851,26.848 -15.354,34.221 3.854,-18.872 -14.15,-32.749 -24.487,-38.642 -10.315,-5.903 -1.163,-12.685 2.368,-18.587 3.531,-5.906 4.415,-13.279 -7.387,-13.279 -11.8,0 -18.866,8.259 -20.654,17.404 -1.765,9.152 5.016,15.048 4.137,18.587 -0.882,3.543 -21.536,33.929 -25.674,39.534 -4.112,5.612 -5.598,-5.605 -5.598,-5.605 V 474.07 c 0,0 -4.415,-6.786 -9.734,-8.848 -5.316,-2.067 -16.514,-2.654 -23.601,10.321 -7.086,12.99 -18.001,35.704 -18.001,35.704 0,0 0,-25.671 0,-37.178 0,-11.502 -15.916,-9.732 -15.916,-9.732 v 80.541 c 0,0 -0.604,12.101 9.735,12.101 l 8.248,-0.299 c 3.25,-45.132 22.438,-67.561 26.856,-73.463 4.431,-5.899 3.527,0.889 3.527,0.889 0,0 0,32.742 0,50.15 0,17.405 10.639,30.683 26.275,15.934 15.632,-14.755 31.267,-47.21 31.267,-47.21 2.65,6.491 11.801,7.971 17.983,19.18 6.202,11.211 -1.161,20.649 -9.734,20.944 -8.546,0.3 -7.361,-7.96 -12.685,-7.669 -5.296,0.299 -12.963,7.969 -5.296,15.347 7.667,7.372 24.489,5.31 24.489,5.31 28.921,0 38.633,-34.223 38.633,-34.223 1.486,12.979 3.255,34.223 22.138,34.223 18.886,0 24.791,-23.013 24.791,-23.013 0,0 6.477,23.013 26.551,23.013 20.048,0 25.95,-17.116 25.95,-17.116 1.767,9.151 8.85,17.995 19.768,17.995 10.92,0 19.19,-14.162 19.19,-14.162 0,0 4.713,13.577 20.654,13.577 15.913,0 24.481,-14.16 24.481,-14.16 l -0.023,7.73 c 0,0 -10.655,12.596 -24.183,26.2 -17.31,17.411 -25.95,47.496 8.269,47.496 34.221,0 33.342,-37.179 33.342,-37.179 0,0 1.763,-15.338 0,-41.01 22.416,-18.286 31.269,-51.034 32.451,-54.87 1.184,-3.847 7.082,-5.32 7.082,-5.32 h 13.876 c 0,0 -5.903,15.643 -6.206,35.708 -0.303,20.058 8.55,36.283 21.839,36.283 13.265,0 20.65,-13.862 20.65,-13.862 0,0 3.533,12.688 22.7,12.688 19.186,0 26.402,-20.28 26.402,-20.28 0,0 5.362,20.551 18.648,20.551 13.265,0 19.275,-14.854 19.275,-14.854 0,0 0.475,12.794 0,12.794 -0.472,0 21.015,0 21.015,0 0,0 0,-4.105 0,-23.383 0,-19.286 7.905,-34.778 11.869,-42.044 3.94,-7.279 5.685,-0.64 5.685,-0.64 0,0 0,0.64 0.474,27.819 0.473,27.187 7.583,33.197 13.915,33.197 6.309,0 5.685,-5.377 7.426,-15.334 2.198,-23.876 16.112,-48.373 16.112,-48.373 0,0 0,28.769 0,34.936 0,6.162 -0.624,36.193 21.017,36.193 21.658,10e-4 20.393,-31.921 20.393,-31.921 z M 916.68,511.546 c -1.768,21.823 -10.273,32.451 -17.102,32.451 -6.846,0 -14.039,-15.44 -12.982,-33.933 1.049,-18.502 8.33,-32.748 15.184,-32.748 9.884,0.001 16.794,10.9 14.9,34.23 z m 86.742,0 c -1.765,21.823 -10.271,32.451 -17.118,32.451 -6.826,0 -14.021,-15.44 -12.965,-33.933 1.053,-18.502 8.334,-32.748 15.183,-32.748 9.884,0.001 16.796,10.9 14.9,34.23 z M 991.429,611.82 c -21.362,2.421 -12.429,-16.153 -6.524,-24.205 6.911,-9.412 22.479,-22.868 22.479,-22.868 0,0 2.695,44.964 -15.955,47.073 z m 164.534,-100.274 c -1.767,21.823 -10.274,32.451 -17.126,32.451 -6.826,0 -14.019,-15.44 -12.963,-33.933 1.032,-18.502 8.334,-32.748 15.16,-32.748 9.906,0.001 16.818,10.9 14.929,34.23 z"
           id="path3866" />
      </g>
      <g
         id="g3874">
        <g
           id="g3872">
          <path
             style="fill:#252525"
             inkscape:connector-curvature="0"
             d="m 442.559,419.939 c -7.547,0 -13.664,6.119 -13.664,13.664 0,7.548 6.118,13.666 13.664,13.666 7.545,0 13.663,-6.118 13.663,-13.666 0,-7.546 -6.118,-13.664 -13.663,-13.664 z m -11.056,-36.858 h -95.325 c -35.097,0 -63.553,28.629 -63.553,63.944 v 91.921 c 0,35.316 28.455,63.946 63.553,63.946 h 95.325 c 35.098,0 63.551,-28.631 63.551,-63.946 v -91.92 c 0,-35.315 -28.453,-63.945 -63.551,-63.945 z m 42.766,147.58 c 0,34.271 -15.465,52.755 -51.777,52.755 h -77.666 c -35.931,0 -51.778,-17.76 -51.778,-52.755 v -75.833 c 0,-38.12 15.605,-52.752 51.778,-52.752 h 77.666 c 33.909,0 51.777,16.076 51.777,52.752 z M 383.23,435.96 c -31.374,0 -56.805,25.433 -56.805,56.803 0,31.37 25.432,56.802 56.805,56.802 31.37,0 56.8,-25.432 56.8,-56.802 0,-31.37 -25.43,-56.803 -56.8,-56.803 z m 0,93.76 c -20.413,0 -36.959,-16.545 -36.959,-36.957 0,-20.411 16.546,-36.956 36.959,-36.956 20.406,0 36.951,16.545 36.951,36.956 0,20.412 -16.545,36.957 -36.951,36.957 z"
             id="path3870" />
        </g>
      </g>
    </g>
  </g>
</svg>
