<svg xmlns="http://www.w3.org/2000/svg" width="20" height="20" viewBox="0 0 20 20">
  <defs>
    <style>
      .cls-1 {
        fill: #18243d;
      }
    </style>
  </defs>
  <path id="Caminho_3" data-name="Caminho 3" class="cls-1" d="M10,0A10,10,0,1,0,20,10,10.011,10.011,0,0,0,10,0ZM8.077,3.58l.467.133V3.1l.182-.172.195.378.371.448-.15.206-.6.138V3.733L8.076,4.1,7.941,3.89Zm-7.2,6.2A9.063,9.063,0,0,1,2.648,4.6a.333.333,0,0,1,.061.014c0,.138-.188.171,0,.517.24.448.034.654.034.654s-.586.413-.689.482-.378.448-.207.344.378-.206.207.069-.482.723-.551.9-.413.585-.413.792a7.134,7.134,0,0,0-.1.793A1.711,1.711,0,0,1,.875,9.777Zm3.556,5.751-.138.515.138.413a.774.774,0,0,1-.344.173c-.127,0-.17.08-.309.043A9.135,9.135,0,0,1,1.1,12.031a.512.512,0,0,1,.2.123,1.149,1.149,0,0,0,.379.241c.172.07.241.172.448.275s.138.035.413.345a1.014,1.014,0,0,1,.31.481,2.6,2.6,0,0,0,.241.448c.069.1.275.172.378.241a.85.85,0,0,0,.378.138c.1,0,.414.31.586.344s.172.38.172.38ZM5.808,2.238a5.471,5.471,0,0,0-.448.481.889.889,0,0,1-.311.344,1.155,1.155,0,0,0-.344.378l-.379.138-.309-.138s-.277.1-.242-.035a1.067,1.067,0,0,1,.04-.114A9.146,9.146,0,0,1,6.733,1.477c-.107.138-.237.279-.237.279S6.255,1.755,5.808,2.238Zm10.5,12.36c-.036.137-.1.378-.138.516a1.175,1.175,0,0,1-.309.482c-.1.069-.276.276-.378.311s-.173-.242-.138-.379a5.452,5.452,0,0,1,.207-.517s.035-.206.069-.344.448-.309.448-.309l.276-.517a1.226,1.226,0,0,1,.035.241A3.3,3.3,0,0,1,16.308,14.6Zm.1-3.236c-.069.1-.276.378-.379.515a2.765,2.765,0,0,1-.447.517c-.207.172-.208.343-.31.483a3.2,3.2,0,0,0-.241.447s.069.69.1.827-.241.515-.241.515l-.31.31-.415.551.033.515s-.313.241-.486.379-.144.241-.282.379a2.267,2.267,0,0,1-.639.413c-.137.035-.722.137-.722.137v-.309l-.191-.344a4.83,4.83,0,0,0-.3-.551c-.1-.137-.1-.344-.275-.516a1.126,1.126,0,0,1-.291-.414,1.33,1.33,0,0,1,.025-.412s.133-.379.2-.516a.6.6,0,0,0-.072-.483,1.907,1.907,0,0,1-.1-.585c0-.1-.278-.277-.38-.379s-.069-.241-.069-.378a3.648,3.648,0,0,1-.07-.689c.035-.241-.309-.07-.515,0S9.7,11.7,9.7,11.5s-.378-.033-.62.1a5.317,5.317,0,0,1-.793.241.338.338,0,0,1-.412-.1,4.057,4.057,0,0,0-.413-.31,2.126,2.126,0,0,1-.484-.481,3.369,3.369,0,0,1-.515-.9,3.317,3.317,0,0,1,0-.587A2.653,2.653,0,0,1,6.5,8.914a1.915,1.915,0,0,1,.241-.551,2.225,2.225,0,0,1,.584-.448c.1-.068.344-.275.344-.413s.138-.206.206-.344.311-.481.62-.344a3,3,0,0,0,.378-.068,5.166,5.166,0,0,0,.515-.206,1.954,1.954,0,0,1,.481-.1,1.71,1.71,0,0,0,.374.108c.1,0,.44-.06.44-.06a4.922,4.922,0,0,1,.155.6c0,.1.1.206.277.275s.963.241,1.309-.035c.08-.064.343.1.343.1a5.63,5.63,0,0,1,1,.275c.138.1.379.173.448.277a4.272,4.272,0,0,1,.343.516c.036.1.208.483.243.62a3.09,3.09,0,0,0,.24.654c.1.173.69.929.9,1.274l.621-.1A2.012,2.012,0,0,1,16.412,11.362Zm2.514-1.307c-.034-.138-.241-.62-.241-.62a1.561,1.561,0,0,0-.344-.344c-.137-.069-.241-.241-.482-.378a.994.994,0,0,0-.55-.207c-.208,0-.413-.276-.655-.414s-.276-.068-.276-.068a2.326,2.326,0,0,1,.276.516c0,.1.309.275.62.206a3.4,3.4,0,0,0,.309.482c.1.1-.035.207-.241.344a1.132,1.132,0,0,0-.277.206,4.644,4.644,0,0,1-.551.344c-.1.068-.516.275-.721.068-.1-.1-.071-.309-.138-.448s-.792-1.2-1.136-1.686a2,2,0,0,0-.309-.413c-.1-.07.242-.07.242-.07a2.514,2.514,0,0,0-.035-.413,1.068,1.068,0,0,1,.035-.413s-.344.206-.449.275-.207-.137-.343-.31a1.48,1.48,0,0,1-.31-.551c-.035-.172.172-.241.172-.241l.309-.172a2.51,2.51,0,0,1,.621-.035c.241.035.619.069.619.069s.1-.241-.035-.344-.448-.275-.585-.241.068-.172.24-.31L14.31,4.82s-.347.172-.451.207a.874.874,0,0,0-.421.275c-.136.172.055.413-.083.482a2.121,2.121,0,0,1-.334.137,1.73,1.73,0,0,1-.43,0c-.356,0-.128.325-.036.44l-.275-.336-.2-.483s-.294-.206-.431-.275-.563-.31-.563-.31l.029.31.4.4.035.009.244.275-.422.035V5.718c-.706-.1-.356-.212-.4-.245l-.36-.241s-.415.069-.518.1-.136.138-.342.206a.656.656,0,0,0-.372.275,5.041,5.041,0,0,1-.43.551c-.138.138-.4.1-.5.1a5.438,5.438,0,0,1-.6-.138V5.749a1.42,1.42,0,0,0,.035-.431l.3-.051.5-.1.148-.1.212-.275a.291.291,0,0,1-.066-.413c.083-.116.38-.138.517-.241a1.432,1.432,0,0,1,.345-.172s.241-.206.482-.448a2.154,2.154,0,0,1,.378-.173,3.969,3.969,0,0,0,.69.517,2.07,2.07,0,0,0,.483-.241,1.131,1.131,0,0,0,.069-.413c-.035-.1-.207-.448-.207-.448s-.1.172-.205.31a1.624,1.624,0,0,0-.174.31s-.483-.033-.516-.136-.1-.274-.138-.376-.309-.1-.515-.031.033-.371.033-.371.208-.26.344-.26a4.039,4.039,0,0,0,.584-.21,4.576,4.576,0,0,1,.723-.3c.172,0,.379-.032.483-.032h.515l.722.049s.62.282.412.421a4.034,4.034,0,0,1,.346.28c.1.1.346-.076.489-.156a9.145,9.145,0,0,1,4.3,7.744c0,.175-.016.349-.025.522C19.045,10.353,18.948,10.145,18.925,10.054Z"/>
</svg>
