<svg xmlns="http://www.w3.org/2000/svg" width="20.625" height="16.5" viewBox="0 0 20.625 16.5">
  <defs>
    <style>
      .cls-1 {
        fill: #2d9bf7;
        fill-rule: evenodd;
      }
    </style>
  </defs>
  <path id="Twitter_Logo" data-name="Twitter Logo" class="cls-1" d="M761,18.947a8.569,8.569,0,0,1-2.429.656,4.189,4.189,0,0,0,1.859-2.3,8.544,8.544,0,0,1-2.686,1.01A4.254,4.254,0,0,0,754.661,17a4.2,4.2,0,0,0-4.229,4.164,4.123,4.123,0,0,0,.109.949,12.07,12.07,0,0,1-8.717-4.35,4.094,4.094,0,0,0-.573,2.093,4.146,4.146,0,0,0,1.882,3.466,4.269,4.269,0,0,1-1.916-.521v0.052a4.183,4.183,0,0,0,3.392,4.083A4.3,4.3,0,0,1,742.7,27a4.227,4.227,0,0,0,3.951,2.891,8.568,8.568,0,0,1-5.252,1.782,8.655,8.655,0,0,1-1.009-.058,12.1,12.1,0,0,0,6.483,1.871,11.854,11.854,0,0,0,12.034-11.846c0-.181,0-0.36-0.013-0.539A8.505,8.505,0,0,0,761,18.947Z" transform="translate(-740.375 -17)"/>
</svg>
