<svg xmlns="http://www.w3.org/2000/svg" width="24.092" height="24.092" viewBox="0 0 24.092 24.092">
  <defs>
    <style>
      .cls-1 {
        fill: #fff;
      }
    </style>
  </defs>
  <g id="facebook-app-logo" transform="translate(0 -0.001)">
    <path id="Caminho_1" data-name="Caminho 1" class="cls-1" d="M22.762,0H1.33A1.33,1.33,0,0,0,0,1.331V22.763a1.33,1.33,0,0,0,1.33,1.331H12.868v-9.33H9.729V11.127h3.139V8.445c0-3.111,1.9-4.806,4.676-4.806a26.04,26.04,0,0,1,2.805.143V7.034H18.424c-1.509,0-1.8.718-1.8,1.77v2.321h3.6l-.471,3.636H16.623v9.33h6.139a1.331,1.331,0,0,0,1.331-1.329V1.33A1.33,1.33,0,0,0,22.762,0Z"/>
  </g>
</svg>
